<svg preserveAspectRatio="xMidYMid meet" width="100%" height="100%" viewBox="0 0 24 24" fill="none" xmlns="http://www.w3.org/2000/svg">
  <path d="M12 5c-1.8 0-3 1.4-3 3.2 0 1.3.4 2.6.4 4.1 0 1.7-.9 2.7-1.4 3.8-.7 1.5-.4 3.1.5 4.1.8.9 2.1 1.3 3.5 1.3s2.7-.4 3.5-1.3c.9-1 1.2-2.6.5-4.1-.5-1.1-1.4-2.1-1.4-3.8 0-1.5.4-2.8.4-4.1C15 6.4 13.8 5 12 5Z" stroke="#B53874" stroke-width="2" stroke-linecap="round" stroke-linejoin="round"/>
  <path d="M18 4v3M16.5 5.5h3" stroke="#B53874" stroke-width="2" stroke-linecap="round"/>
  <path d="M5.5 8v2M4.5 9h2" stroke="#B53874" stroke-width="2" stroke-linecap="round"/>
</svg>
